<svg class="thumb" width="1000" height="1000" viewBox="0,0,600,600" xmlns="http://www.w3.org/2000/svg" xmlns:inkscape="http://www.inkscape.org/namespaces/inkscape" xmlns:sodipodi="http://sodipodi.sourceforge.net/DTD/sodipodi-0.dtd" xmlns:xlink="http://www.w3.org/1999/xlink" xmlns:ns1="http://www.inkscape.org/namespaces/inkscape" xmlns:sketch="http://www.bohemiancoding.com/sketch/ns">
  <defs><style type='text/css'></style></defs>
  <g transform="matrix(1.2344,0,0,1.2344,-67.4344,146.7458)">
    <g transform="matrix(-1.2856,0.0224,-0.0224,-1.2856,363.59,158.2043)">
      <svg width="77.00400000000002" height="53.7" viewBox="11.428999999999988,23.959999999999997,77.00400000000002,53.7">
        <defs>
          <linearGradient x1="0" y1="0.5" x2="1" y2="0.5" id="linearGradientSjsn91j434">
            <stop offset="0%" stop-color="#74d14c" stop-opacity="0.54"></stop>
            <stop offset="100%" stop-color="#74d14c" stop-opacity="0.54"></stop>
          </linearGradient>
        </defs>
        <g></g>
        <g></g>
        <g></g>
        <g>
          <path fill-rule="evenodd" clip-rule="evenodd" d="M73.232,28.96c-5.631,0-10.194,4.567-10.194,10.197   c0,8.74-4.368,13.108-13.11,13.108c-8.737,0-13.111-4.369-13.111-13.108c0-5.63-4.563-10.197-10.194-10.197   s-10.194,4.567-10.194,10.197c0,5.631,4.563,10.198,10.194,10.198c8.742,0,13.111,4.369,13.111,13.111   c0,5.631,4.563,10.194,10.195,10.194c5.63,0,10.2-4.563,10.2-10.194c0-8.742,4.368-13.111,13.104-13.111   c5.637,0,10.2-4.567,10.2-10.198C83.433,33.527,78.869,28.96,73.232,28.96z" fill="url('#linearGradientSjsn91j434')" style="" stroke="none"></path>
        </g>
      </svg>
    </g>
    <g transform="matrix(1.2858,0,0,1.2858,263.9971,60.9266)">
      <svg width="77.00400000000002" height="53.7" viewBox="11.428999999999988,23.959999999999997,77.00400000000002,53.7">
        <defs>
          <linearGradient x1="0" y1="0.5" x2="1" y2="0.5" id="linearGradientSjsn91j43a">
            <stop offset="0%" stop-color="#61c78c" stop-opacity="0.54"></stop>
            <stop offset="100%" stop-color="#61c78c" stop-opacity="0.54"></stop>
          </linearGradient>
        </defs>
        <g></g>
        <g></g>
        <g></g>
        <g>
          <path fill-rule="evenodd" clip-rule="evenodd" d="M73.232,28.96c-5.631,0-10.194,4.567-10.194,10.197   c0,8.74-4.368,13.108-13.11,13.108c-8.737,0-13.111-4.369-13.111-13.108c0-5.63-4.563-10.197-10.194-10.197   s-10.194,4.567-10.194,10.197c0,5.631,4.563,10.198,10.194,10.198c8.742,0,13.111,4.369,13.111,13.111   c0,5.631,4.563,10.194,10.195,10.194c5.63,0,10.2-4.563,10.2-10.194c0-8.742,4.368-13.111,13.104-13.111   c5.637,0,10.2-4.567,10.2-10.198C83.433,33.527,78.869,28.96,73.232,28.96z" fill="url('#linearGradientSjsn91j43a')" style="" stroke="none"></path>
        </g>
      </svg>
    </g>
    <g transform="matrix(0.0449,1.285,-1.285,0.0449,298.8251,0.3381)">
      <svg width="77.00400000000002" height="53.7" viewBox="11.428999999999988,23.959999999999997,77.00400000000002,53.7">
        <defs>
          <linearGradient x1="0" y1="0.5" x2="1" y2="0.5" id="linearGradientSjsn91j43g">
            <stop offset="0%" stop-color="#33b5cc" stop-opacity="0.53"></stop>
            <stop offset="100%" stop-color="#33b5cc" stop-opacity="0.53"></stop>
          </linearGradient>
        </defs>
        <g></g>
        <g></g>
        <g></g>
        <g>
          <path fill-rule="evenodd" clip-rule="evenodd" d="M73.232,28.96c-5.631,0-10.194,4.567-10.194,10.197   c0,8.74-4.368,13.108-13.11,13.108c-8.737,0-13.111-4.369-13.111-13.108c0-5.63-4.563-10.197-10.194-10.197   s-10.194,4.567-10.194,10.197c0,5.631,4.563,10.198,10.194,10.198c8.742,0,13.111,4.369,13.111,13.111   c0,5.631,4.563,10.194,10.195,10.194c5.63,0,10.2-4.563,10.2-10.194c0-8.742,4.368-13.111,13.104-13.111   c5.637,0,10.2-4.567,10.2-10.198C83.433,33.527,78.869,28.96,73.232,28.96z" fill="url('#linearGradientSjsn91j43g')" style="" stroke="none"></path>
        </g>
      </svg>
    </g>
    <g transform="matrix(0,1.2858,-1.2858,0,302.5734,60.4971)">
      <svg width="77.00400000000002" height="53.7" viewBox="11.428999999999988,23.959999999999997,77.00400000000002,53.7">
        <defs>
          <linearGradient x1="0" y1="0.5" x2="1" y2="0.5" id="linearGradientSjsn91j43m">
            <stop offset="0%" stop-color="#5accc2" stop-opacity="0.53"></stop>
            <stop offset="100%" stop-color="#5accc2" stop-opacity="0.53"></stop>
          </linearGradient>
        </defs>
        <g></g>
        <g></g>
        <g></g>
        <g>
          <path fill-rule="evenodd" clip-rule="evenodd" d="M73.232,28.96c-5.631,0-10.194,4.567-10.194,10.197   c0,8.74-4.368,13.108-13.11,13.108c-8.737,0-13.111-4.369-13.111-13.108c0-5.63-4.563-10.197-10.194-10.197   s-10.194,4.567-10.194,10.197c0,5.631,4.563,10.198,10.194,10.198c8.742,0,13.111,4.369,13.111,13.111   c0,5.631,4.563,10.194,10.195,10.194c5.63,0,10.2-4.563,10.2-10.194c0-8.742,4.368-13.111,13.104-13.111   c5.637,0,10.2-4.567,10.2-10.198C83.433,33.527,78.869,28.96,73.232,28.96z" fill="url('#linearGradientSjsn91j43m')" style="" stroke="none"></path>
        </g>
      </svg>
    </g>
    <g transform="matrix(0.8167,0,0,0.8167,73.7902,137.9495)">
      <svg width="545.41015625" height="196" style="overflow: visible;">
        <defs>
          <linearGradient x1="0" y1="0.5" x2="1" y2="0.5" id="linearGradientSjsn91j43u">
            <stop offset="0%" stop-color="#3a3a3a"></stop>
            <stop offset="100%" stop-color="#3a3a3a"></stop>
          </linearGradient>
        </defs>
        <g transform="matrix(1,0,0,1,0,102)">
          <path d="M 45.21-49.41L 45.21-49.41Q 45.21-38.04  39.48-31.96Q 33.74-25.88  22.9-25.88L 22.9-25.88L 19.58-25.88L 19.58 0L 6.3 0L 6.3-71.39L 24.41-71.39Q 45.21-71.39  45.21-49.41ZM 19.58-59.91L 19.58-37.4L 22.12-37.4Q 27-37.4  29.39-40.09Q 31.79-42.77  31.79-48.88L 31.79-48.88Q 31.79-54.49  29.59-57.2Q 27.39-59.91  22.8-59.91L 22.8-59.91L 19.58-59.91ZM 93.70039062499997-27.29L 93.70039062499997-27.29Q 93.70039062499997-13.92  88.04039062499997-6.47Q 82.37039062499997 0.98  72.51039062499997 0.98L 72.51039062499997 0.98Q 66.26039062499997 0.98  61.47039062499997-2.44Q 56.69039062499997-5.86  54.100390624999974-12.28Q 51.51039062499997-18.7  51.51039062499997-27.29L 51.51039062499997-27.29Q 51.51039062499997-40.53  57.130390624999976-47.97Q 62.740390624999975-55.42  72.70039062499997-55.42L 72.70039062499997-55.42Q 82.32039062499997-55.42  88.01039062499997-47.83Q 93.70039062499997-40.23  93.70039062499997-27.29ZM 64.79039062499997-27.29L 64.79039062499997-27.29Q 64.79039062499997-18.8  66.65039062499997-14.45Q 68.51039062499997-10.11  72.61039062499998-10.11L 72.61039062499998-10.11Q 80.42039062499998-10.11  80.42039062499998-27.29L 80.42039062499998-27.29Q 80.42039062499998-35.84  78.54039062499997-40.06Q 76.66039062499998-44.29  72.61039062499998-44.29L 72.61039062499998-44.29Q 68.51039062499997-44.29  66.65039062499997-40.06Q 64.79039062499997-35.84  64.79039062499997-27.29ZM 115.82445312499998-75.98L 115.82445312499998 0L 102.83445312499997 0L 102.83445312499997-75.98L 115.82445312499998-75.98ZM 137.30140624999996 0.88L 121.19140624999994-54.39L 134.67140624999993-54.39L 142.19140624999994-23.68Q 143.31140624999995-19.58  143.99140624999995-12.21L 143.99140624999995-12.21L 144.29140624999994-12.21Q 144.33140624999993-13.38  144.73140624999994-16.38Q 145.12140624999995-19.38  145.36140624999996-21.09Q 145.60140624999994-22.8  152.10140624999994-54.39L 152.10140624999994-54.39L 165.77140624999993-54.39L 150.19140624999994 3.91Q 147.36140624999996 14.65  142.67140624999993 19.34Q 137.99140624999995 24.02  130.17140624999993 24.02L 130.17140624999993 24.02Q 126.32140624999994 24.02  123.29140624999994 23.19L 123.29140624999994 23.19L 123.29140624999994 12.3Q 125.29140624999994 12.89  127.78140624999995 12.89L 127.78140624999995 12.89Q 134.32140624999994 12.89  136.38140624999994 4.3L 136.38140624999994 4.3L 137.30140624999996 0.88ZM 195.56148437499994 0.98L 195.56148437499994 0.98Q 192.04148437499995 0.98  189.33148437499995-0.61Q 186.62148437499994-2.2  184.28148437499993-6.2L 184.28148437499993-6.2L 183.59148437499994-6.2Q 184.37148437499994 0.44  184.37148437499994 1.81L 184.37148437499994 1.81L 184.37148437499994 24.02L 171.29148437499995 24.02L 171.29148437499995-54.39L 181.35148437499996-54.39L 183.59148437499994-47.31L 184.18148437499994-47.31Q 188.23148437499995-55.42  195.95148437499995-55.42L 195.95148437499995-55.42Q 203.37148437499994-55.42  207.57148437499995-48.07Q 211.77148437499994-40.72  211.77148437499994-27.29L 211.77148437499994-27.29Q 211.77148437499994-14.06  207.42148437499995-6.54Q 203.07148437499995 0.98  195.56148437499994 0.98ZM 191.55148437499994-44.38L 191.55148437499994-44.38Q 187.74148437499994-44.38  186.06148437499994-40.84Q 184.37148437499994-37.3  184.28148437499993-29.1L 184.28148437499993-29.1L 184.28148437499993-27.39Q 184.28148437499993-18.41  185.98148437499995-14.31Q 187.69148437499996-10.21  191.65148437499994-10.21L 191.65148437499994-10.21Q 198.48148437499995-10.21  198.48148437499995-27.49L 198.48148437499995-27.49Q 198.48148437499995-35.99  196.80148437499994-40.19Q 195.12148437499994-44.38  191.55148437499994-44.38ZM 261.08085937499993 0L 248.00085937499995 0L 248.00085937499995-32.42Q 248.00085937499995-44.38  241.99085937499996-44.38L 241.99085937499996-44.38Q 237.50085937499995-44.38  235.69085937499995-39.67Q 233.89085937499993-34.96  233.89085937499993-26.12L 233.89085937499993-26.12L 233.89085937499993 0L 220.90085937499995 0L 220.90085937499995-75.98L 233.89085937499993-75.98L 233.89085937499993-59.08Q 233.89085937499993-55.81  233.30085937499996-47.41L 233.30085937499996-47.41L 233.98085937499994-47.41Q 237.89085937499993-55.42  246.00085937499995-55.42L 246.00085937499995-55.42Q 253.47085937499995-55.42  257.27085937499993-50.37Q 261.08085937499993-45.31  261.08085937499993-35.5L 261.08085937499993-35.5L 261.08085937499993 0ZM 291.65445312499986 0.98L 291.65445312499986 0.98Q 281.4444531249999 0.98  275.5644531249999-6.27Q 269.6744531249999-13.53  269.6744531249999-26.81L 269.6744531249999-26.81Q 269.6744531249999-40.28  275.0044531249999-47.85Q 280.3244531249999-55.42  289.84445312499986-55.42L 289.84445312499986-55.42Q 298.7344531249999-55.42  303.8544531249999-48.95Q 308.9844531249999-42.48  308.9844531249999-30.81L 308.9844531249999-30.81L 308.9844531249999-23.88L 282.8644531249999-23.88Q 283.0044531249999-16.6  285.84445312499986-13.06Q 288.6744531249999-9.52  293.65445312499986-9.52L 293.65445312499986-9.52Q 300.0044531249999-9.52  306.64445312499987-13.48L 306.64445312499987-13.48L 306.64445312499987-2.78Q 300.39445312499987 0.98  291.65445312499986 0.98ZM 289.7444531249999-45.41L 289.7444531249999-45.41Q 286.96445312499986-45.41  285.15445312499986-42.46Q 283.3544531249999-39.5  283.0544531249999-33.3L 283.0544531249999-33.3L 296.2444531249999-33.3Q 296.14445312499987-39.26  294.4344531249999-42.33Q 292.7244531249999-45.41  289.7444531249999-45.41ZM 357.7605468749999 0L 344.6805468749999 0L 344.6805468749999-32.42Q 344.6805468749999-38.33  343.2605468749999-41.36Q 341.8505468749999-44.38  338.6705468749999-44.38L 338.6705468749999-44.38Q 334.4705468749999-44.38  332.52054687499987-40.21Q 330.5705468749999-36.04  330.5705468749999-26.12L 330.5705468749999-26.12L 330.5705468749999 0L 317.58054687499987 0L 317.58054687499987-54.39L 327.8805468749999-54.39L 329.4405468749999-47.41L 330.27054687499987-47.41Q 332.0305468749999-51.17  335.3005468749999-53.3Q 338.5705468749999-55.42  342.9705468749999-55.42L 342.9705468749999-55.42Q 350.39054687499987-55.42  354.08054687499987-50.34Q 357.7605468749999-45.26  357.7605468749999-35.5L 357.7605468749999-35.5L 357.7605468749999 0ZM 378.85414062499996 0.88L 362.74414062499994-54.39L 376.22414062499996-54.39L 383.74414062499994-23.68Q 384.86414062499995-19.58  385.54414062499995-12.21L 385.54414062499995-12.21L 385.84414062499997-12.21Q 385.88414062499993-13.38  386.28414062499996-16.38Q 386.67414062499995-19.38  386.91414062499996-21.09Q 387.15414062499997-22.8  393.65414062499997-54.39L 393.65414062499997-54.39L 407.3241406249999-54.39L 391.74414062499994 3.91Q 388.91414062499996 14.65  384.22414062499996 19.34Q 379.54414062499995 24.02  371.72414062499996 24.02L 371.72414062499996 24.02Q 367.87414062499994 24.02  364.84414062499997 23.19L 364.84414062499997 23.19L 364.84414062499997 12.3Q 366.84414062499997 12.89  369.3341406249999 12.89L 369.3341406249999 12.89Q 375.87414062499994 12.89  377.93414062499994 4.3L 377.93414062499994 4.3L 378.85414062499996 0.88ZM 435.40421875-21.09L 410.84421875-21.09L 410.84421875-32.52L 435.40421875-32.52L 435.40421875-21.09ZM 490.626015625-36.38L 490.626015625-36.38Q 490.626015625-18.7  483.426015625-9.35Q 476.216015625 0  462.696015625 0L 462.696015625 0L 445.216015625 0L 445.216015625-71.39L 464.306015625-71.39Q 476.75601562500003-71.39  483.696015625-62.18Q 490.626015625-52.98  490.626015625-36.38ZM 477.00601562500003-35.99L 477.00601562500003-35.99Q 477.00601562500003-59.91  463.816015625-59.91L 463.816015625-59.91L 458.496015625-59.91L 458.496015625-11.62L 462.796015625-11.62Q 470.066015625-11.62  473.536015625-17.7Q 477.00601562500003-23.78  477.00601562500003-35.99ZM 501.0265625 0L 501.0265625-71.39L 519.2365625-71.39Q 530.3665625-71.39  535.4465625-67.07Q 540.5265625-62.74  540.5265625-53.32L 540.5265625-53.32Q 540.5265625-47.12  537.8465625-42.94Q 535.1565625-38.77  530.5165625-37.89L 530.5165625-37.89L 530.5165625-37.4Q 536.5765625-35.89  539.2565625-31.74Q 541.9465625-27.59  541.9465625-20.7L 541.9465625-20.7Q 541.9465625-10.99  536.7465625-5.49Q 531.5465625 0  522.5065625 0L 522.5065625 0L 501.0265625 0ZM 513.5265625-59.91L 513.5265625-42.68L 519.6265625-42.68Q 523.8265625-42.68  525.5365625-44.92Q 527.2465625-47.17  527.2465625-51.61L 527.2465625-51.61Q 527.2465625-56.05  525.2965625-57.98Q 523.3365625-59.91  519.1365625-59.91L 519.1365625-59.91L 513.5265625-59.91ZM 520.0165625-31.59L 513.5265625-31.59L 513.5265625-11.62L 520.2165625-11.62Q 524.3665625-11.62  526.3965625-14.16Q 528.4165625-16.7  528.4165625-22.02L 528.4165625-22.02Q 528.4165625-31.59  520.0165625-31.59L 520.0165625-31.59Z" data-textpath="Polypheny-DB" data-text-anchor="middle" data-font-size="100" data-letterspacing="0" data-side="left" data-offset="0.5" data-dx="0" data-dy="0" data-xmlspace="preserve" data-href="" data-font="Open Sans Condensed" data-font-src="/Content/clientfonts/opensanscondensed-bold.woff" data-font-scale="contain" transform="translate(0,0)" data-x="0" data-y="0" fill="url('#linearGradientSjsn91j43u')"></path>
        </g>
      </svg>
    </g>
  </g>
</svg>